HIERARCHY
ROOT hip
{
  OFFSET 0 0 0
  CHANNELS 6 Xposition Yposition Zposition Zrotation Yrotation Xrotation
  JOINT abdomen
  {
    OFFSET 0 20.6881 -0.73152
    CHANNELS 3 Zrotation Xrotation Yrotation
    JOINT chest
    {
      OFFSET 0 11.7043 -0.48768
      CHANNELS 3 Zrotation Xrotation Yrotation
      JOINT neck
      {
        OFFSET 0 22.1894 -2.19456
        CHANNELS 3 Zrotation Xrotation Yrotation
        JOINT head
        {
          OFFSET -0.24384 7.07133 1.2192
          CHANNELS 3 Zrotation Xrotation Yrotation
          JOINT leftEye
          {
            OFFSET 4.14528 8.04674 8.04672
            CHANNELS 3 Zrotation Xrotation Yrotation
            End Site
            {
              OFFSET 1 0 0
            }
          }
          JOINT rightEye
          {
            OFFSET -3.6576 8.04674 8.04672
            CHANNELS 3 Zrotation Xrotation Yrotation
            End Site
            {
              OFFSET 1 0 0
            }
          }
        }
      }
      JOINT rCollar
      {
        OFFSET -2.68224 19.2634 -4.8768
        CHANNELS 3 Zrotation Xrotation Yrotation
        JOINT rShldr
        {
          OFFSET -8.77824 -1.95073 1.46304
          CHANNELS 3 Zrotation Xrotation Yrotation
          JOINT rForeArm
          {
            OFFSET -28.1742 -1.7115 0.48768
            CHANNELS 3 Zrotation Xrotation Yrotation
            JOINT rHand
            {
              OFFSET -22.5879 0.773209 7.07136
              CHANNELS 3 Zrotation Xrotation Yrotation
              JOINT rThumb1
              {
                OFFSET -1.2192 -0.487915 3.41376
                CHANNELS 3 Zrotation Xrotation Yrotation
                JOINT rThumb2
                {
                  OFFSET -3.37035 -0.52449 3.41376
                  CHANNELS 3 Zrotation Xrotation Yrotation
                  End Site
                  {
                    OFFSET -1.78271 -1.18214 1.43049
                  }
                }
              }
              JOINT rIndex1
              {
                OFFSET -7.75947 0.938293 5.60832
                CHANNELS 3 Zrotation Xrotation Yrotation
                JOINT rIndex2
                {
                  OFFSET -2.54057 -0.884171 1.56538
                  CHANNELS 3 Zrotation Xrotation Yrotation
                  End Site
                  {
                    OFFSET -1.62519 -0.234802 1.16502
                  }
                }
              }
              JOINT rMid1
              {
                OFFSET -8.24714 1.18213 3.41376
                CHANNELS 3 Zrotation Xrotation Yrotation
                JOINT rMid2
                {
                  OFFSET -3.10165 -0.590103 1.0647
                  CHANNELS 3 Zrotation Xrotation Yrotation
                  End Site
                  {
                    OFFSET -2.48547 -0.328903 0.83742
                  }
                }
              }
              JOINT rRing1
              {
                OFFSET -8.82822 0.546677 1.51678
                CHANNELS 3 Zrotation Xrotation Yrotation
                JOINT rRing2
                {
                  OFFSET -2.60934 -0.819778 -0.0198488
                  CHANNELS 3 Zrotation Xrotation Yrotation
                  End Site
                  {
                    OFFSET -2.33842 -0.294052 0.168128
                  }
                }
              }
              JOINT rPinky1
              {
                OFFSET -8.27202 -0.0477905 -0.4584
                CHANNELS 3 Zrotation Xrotation Yrotation
                JOINT rPinky2
                {
                  OFFSET -1.82734 -0.647385 -0.700984
                  CHANNELS 3 Zrotation Xrotation Yrotation
                  End Site
                  {
                    OFFSET -1.69225 -0.51767 -0.607171
                  }
                }
              }
            }
          }
        }
      }
      JOINT lCollar
      {
        OFFSET 2.68224 19.2634 -4.8768
        CHANNELS 3 Zrotation Xrotation Yrotation
        JOINT lShldr
        {
          OFFSET 8.77824 -1.95073 1.46304
          CHANNELS 3 Zrotation Xrotation Yrotation
          JOINT lForeArm
          {
            OFFSET 28.1742 -1.7115 0.48768
            CHANNELS 3 Zrotation Xrotation Yrotation
            JOINT lHand
            {
              OFFSET 22.5879 0.773209 7.07136
              CHANNELS 3 Zrotation Xrotation Yrotation
              JOINT lThumb1
              {
                OFFSET 1.2192 -0.487915 3.41376
                CHANNELS 3 Zrotation Xrotation Yrotation
                JOINT lThumb2
                {
                  OFFSET 3.37035 -0.52449 3.41376
                  CHANNELS 3 Zrotation Xrotation Yrotation
                  End Site
                  {
                    OFFSET 1.78271 -1.18214 1.43049
                  }
                }
              }
              JOINT lIndex1
              {
                OFFSET 7.75947 0.938293 5.60832
                CHANNELS 3 Zrotation Xrotation Yrotation
                JOINT lIndex2
                {
                  OFFSET 2.54057 -0.884171 1.56538
                  CHANNELS 3 Zrotation Xrotation Yrotation
                  End Site
                  {
                    OFFSET 1.62519 -0.234802 1.16502
                  }
                }
              }
              JOINT lMid1
              {
                OFFSET 8.24714 1.18213 3.41376
                CHANNELS 3 Zrotation Xrotation Yrotation
                JOINT lMid2
                {
                  OFFSET 3.10165 -0.590103 1.0647
                  CHANNELS 3 Zrotation Xrotation Yrotation
                  End Site
                  {
                    OFFSET 2.48547 -0.328903 0.83742
                  }
                }
              }
              JOINT lRing1
              {
                OFFSET 8.82822 0.546677 1.51678
                CHANNELS 3 Zrotation Xrotation Yrotation
                JOINT lRing2
                {
                  OFFSET 2.60934 -0.819778 -0.0198488
                  CHANNELS 3 Zrotation Xrotation Yrotation
                  End Site
                  {
                    OFFSET 2.33842 -0.294052 0.168128
                  }
                }
              }
              JOINT lPinky1
              {
                OFFSET 8.27202 -0.0477905 -0.4584
                CHANNELS 3 Zrotation Xrotation Yrotation
                JOINT lPinky2
                {
                  OFFSET 1.82734 -0.647385 -0.700984
                  CHANNELS 3 Zrotation Xrotation Yrotation
                  End Site
                  {
                    OFFSET 1.69225 -0.51767 -0.607171
                  }
                }
              }
            }
          }
        }
      }
    }
  }
  JOINT rButtock
  {
    OFFSET -8.77824 4.35084 1.2192
    CHANNELS 3 Zrotation Xrotation Yrotation
    JOINT rThigh
    {
      OFFSET 0 -1.70687 -2.19456
      CHANNELS 3 Zrotation Xrotation Yrotation
      JOINT rShin
      {
        OFFSET 0 -36.8199 0.73152
        CHANNELS 3 Zrotation Xrotation Yrotation
        JOINT rFoot
        {
          OFFSET 0.73152 -45.1104 -5.12064
          CHANNELS 3 Zrotation Xrotation Yrotation
          End Site
          {
            OFFSET -1.1221 -3.69964 12.103
          }
        }
      }
    }
  }
  JOINT lButtock
  {
    OFFSET 8.77824 4.35084 1.2192
    CHANNELS 3 Zrotation Xrotation Yrotation
    JOINT lThigh
    {
      OFFSET 0 -1.70687 -2.19456
      CHANNELS 3 Zrotation Xrotation Yrotation
      JOINT lShin
      {
        OFFSET 0 -36.8199 0.73152
        CHANNELS 3 Zrotation Xrotation Yrotation
        JOINT lFoot
        {
          OFFSET -0.73152 -45.1104 -5.12064
          CHANNELS 3 Zrotation Xrotation Yrotation
          End Site
          {
            OFFSET 1.1221 -3.69964 12.103
          }
        }
      }
    }
  }
}
MOTION
Frames:	6
Frame Time:	0.00833333
16.5688 70.1339 249.66 0.0 0.0 0.0 1.57504 -0.00270789 0.0428963 0.434167 0.00151626 0.0751876 1.5423e-14 0.0 -5.96354e-16 4.66212e-14 3.18055e-15 -1.63997e-15 -0.0 0.0 0.0 -0.0 0.0 0.0 8.00007e-15 7.95915e-18 -9.93923e-17 1.65407e-13 1.55301e-16 -4.37326e-15 2.83114e-12 -8.34896e-13 -1.36764e-13 3.23131e-11 8.66974e-13 -1.06867e-12 7.62385e-11 6.82045e-14 -2.63032e-12 1.31657e-10 1.20861e-13 -4.54978e-12 7.62466e-11 7.11649e-14 -2.63668e-12 7.73091 5.47488 0.417314 7.62393e-11 6.91771e-14 -2.63032e-12 2.90554 0.965183 0.102902 7.62461e-11 6.83819e-14 -2.62793e-12 10.2786 0.731801 0.0259123 7.62353e-11 6.95746e-14 -2.62396e-12 2.22167 -0.733487 -0.20892 7.90322e-15 9.90041e-18 -3.97569e-16 1.62285e-13 -3.72721e-17 -5.76476e-15 2.81812e-12 8.4722e-13 -1.24042e-13 3.2329e-11 -8.20856e-13 -1.07821e-12 7.62479e-11 6.01563e-14 -2.63986e-12 1.31673e-10 9.85972e-14 -4.54422e-12 7.62399e-11 6.2816e-14 -2.62714e-12 -7.73091 5.47488 -0.417314 7.62477e-11 6.05299e-14 -2.63032e-12 -2.90554 0.965183 -0.102902 7.6237e-11 6.08281e-14 -2.63191e-12 -10.2786 0.731801 -0.0259123 7.62508e-11 6.20208e-14 -2.63668e-12 -2.22167 -0.733487 0.20892 -2.03217e-16 0.0 -3.88251e-19 1.70444 -6.60405 -0.159312 0.00258967 6.39973 0.0733878 -0.527592 0.19972 0.0640396 2.03217e-16 0.0 3.88251e-19 0.691836 -1.9236 0.00558475 0.00917883 -2.07857 0.0757575 0.50316 3.99746 -0.138985
16.4617 67.3039 248.593 -177.932 8.9028 -148.124 3.87961 9.37003 -0.248927 0.954674 -3.54113 0.458317 -0.643235 1.06424 0.192501 -3.22349 -8.83833 -0.0384775 -0.0 0.0 0.0 -0.0 0.0 0.0 -3.93462e-14 2.42821e-14 1.54431e-14 19.3426 8.09705 1.05911 -10.9623 -7.84734 12.8922 0.0141171 -2.63619 -0.369077 7.32107e-10 -7.68376e-10 -1.38104e-09 1.27696e-09 -1.33263e-09 -2.38189e-09 7.32114e-10 -7.68374e-10 -1.38105e-09 7.73091 5.47488 0.417314 7.32108e-10 -7.68376e-10 -1.38105e-09 2.90554 0.965183 0.102902 7.32115e-10 -7.68377e-10 -1.38104e-09 10.2786 0.731801 0.0259123 7.32104e-10 -7.68375e-10 -1.38104e-09 2.22167 -0.733487 -0.20892 -3.94248e-14 2.4284e-14 1.52028e-14 -22.0164 10.886 -1.50888 18.6689 -16.3007 -15.1395 -0.000930367 0.943635 -0.132576 -1.16152e-09 1.62291e-09 1.84495e-09 -2.00385e-09 2.81231e-09 3.19286e-09 -1.16152e-09 1.62291e-09 1.84496e-09 -7.73091 5.47488 -0.417314 -1.16152e-09 1.62291e-09 1.84496e-09 -2.90554 0.965183 -0.102902 -1.16153e-09 1.62291e-09 1.84496e-09 -10.2786 0.731801 -0.0259123 -1.16151e-09 1.62291e-09 1.84495e-09 -2.22167 -0.733487 0.20892 -2.03217e-16 0.0 -3.88251e-19 4.66579 -25.7063 -3.34043 -0.217266 21.197 0.175507 -0.551231 -4.71865 0.302415 2.03217e-16 0.0 3.88251e-19 1.04979 -13.0912 1.14362 0.00841295 20.2086 -0.216101 0.484619 3.65348 -2.3362
16.6295 67.2506 246.94 -177.516 8.9936 -147.884 6.40676 19.2287 -0.594318 1.57256 -7.28218 0.862808 -1.3382 2.18956 0.401224 -6.62799 -18.1737 -0.0674352 -0.0 0.0 0.0 -0.0 0.0 0.0 -8.96247e-14 4.98977e-14 3.04638e-14 39.4645 16.6599 2.17673 -18.7227 -14.7829 27.2285 -0.00804855 -5.42571 -0.762279 1.44919e-09 -1.61126e-09 -2.87538e-09 2.52908e-09 -2.79444e-09 -4.95914e-09 1.44919e-09 -1.61126e-09 -2.87539e-09 7.73091 5.47488 0.417314 1.44919e-09 -1.61126e-09 -2.87538e-09 2.90554 0.965183 0.102902 1.4492e-09 -1.61126e-09 -2.87538e-09 10.2786 0.731801 0.0259123 1.44918e-09 -1.61126e-09 -2.87537e-09 2.22167 -0.733487 -0.20892 -8.9685e-14 4.98998e-14 3.02867e-14 -44.6222 22.4153 -3.29291 28.3866 -29.6513 -34.9624 0.00350995 2.01701 -0.283521 -2.50936e-09 3.39749e-09 3.84836e-09 -4.32914e-09 5.88762e-09 6.65998e-09 -2.50937e-09 3.39749e-09 3.84836e-09 -7.73091 5.47488 -0.417314 -2.50936e-09 3.39748e-09 3.84836e-09 -2.90554 0.965183 -0.102902 -2.50937e-09 3.39748e-09 3.84836e-09 -10.2786 0.731801 -0.0259123 -2.50936e-09 3.39749e-09 3.84836e-09 -2.22167 -0.733487 0.20892 -2.03217e-16 0.0 -3.88251e-19 4.56941 -45.7117 -8.6035 -0.52533 36.7929 0.320115 -0.520148 -9.87717 0.603394 2.03217e-16 0.0 3.88251e-19 1.91789 -24.6807 2.48743 0.329056 43.6283 -0.684327 0.44608 3.37679 -4.68835
16.7855 67.1905 245.26 -177.24 9.1227 -147.712 8.80667 28.1126 -0.932648 2.14001 -10.6243 1.24327 -1.95119 3.19257 0.578301 -9.70963 -26.515 -0.127469 -0.0 0.0 0.0 -0.0 0.0 0.0 -1.34039e-13 7.28303e-14 4.6528e-14 57.0563 24.2563 3.45061 -22.7288 -18.7203 40.883 -0.0603625 -7.90726 -1.11668 2.04385e-09 -2.30526e-09 -4.13787e-09 3.56758e-09 -3.99812e-09 -7.13658e-09 2.04385e-09 -2.30527e-09 -4.13788e-09 7.73091 5.47488 0.417314 2.04385e-09 -2.30527e-09 -4.13787e-09 2.90554 0.965183 0.102902 2.04385e-09 -2.30527e-09 -4.13787e-09 10.2786 0.731801 0.0259123 2.04384e-09 -2.30526e-09 -4.13786e-09 2.22167 -0.733487 -0.20892 -1.34081e-13 7.28321e-14 4.64034e-14 -64.0591 32.5585 -5.27617 29.0823 -34.0377 -56.2494 0.0103232 2.83084 -0.398161 -3.63705e-09 4.86861e-09 5.54014e-09 -6.27489e-09 8.43673e-09 9.58765e-09 -3.63705e-09 4.86861e-09 5.54015e-09 -7.73091 5.47488 -0.417314 -3.63705e-09 4.8686e-09 5.54015e-09 -2.90554 0.965183 -0.102902 -3.63706e-09 4.8686e-09 5.54014e-09 -10.2786 0.731801 -0.0259123 -3.63704e-09 4.8686e-09 5.54014e-09 -2.22167 -0.733487 0.20892 -2.03217e-16 0.0 -3.88251e-19 -2.36777 -62.6994 -19.2834 -0.905883 50.7904 0.545813 -0.472082 -14.5542 0.801824 2.03217e-16 0.0 3.88251e-19 3.35604 -35.3651 4.08526 1.4014 64.7725 -1.78293 0.3683 2.95416 -6.72604
16.9267 67.0611 243.543 -177.012 9.2611 -147.613 10.6375 34.5627 -1.15216 2.48246 -12.9709 1.54677 -2.34313 3.88993 0.675456 -11.9814 -32.3708 -0.265099 -0.0 0.0 0.0 -0.0 0.0 0.0 -1.63792e-13 8.90553e-14 6.52014e-14 68.9211 29.4575 4.89963 -24.3491 -19.764 50.7334 -0.11487 -9.62015 -1.365 2.33245e-09 -2.62706e-09 -4.82075e-09 4.07204e-09 -4.55649e-09 -8.31449e-09 2.33245e-09 -2.62706e-09 -4.82076e-09 7.73091 5.47488 0.417314 2.33245e-09 -2.62707e-09 -4.82076e-09 2.90554 0.965183 0.102902 2.33246e-09 -2.62707e-09 -4.82076e-09 10.2786 0.731801 0.0259123 2.33244e-09 -2.62706e-09 -4.82074e-09 2.22167 -0.733487 -0.20892 -1.63816e-13 8.90555e-14 6.5102e-14 -77.0695 39.329 -7.04553 28.1625 -31.6887 -69.9527 0.0110208 2.99593 -0.421438 -4.21432e-09 5.58108e-09 6.45288e-09 -7.2718e-09 9.67033e-09 1.11667e-08 -4.21432e-09 5.58108e-09 6.45288e-09 -7.73091 5.47488 -0.417314 -4.21432e-09 5.58108e-09 6.45288e-09 -2.90554 0.965183 -0.102902 -4.21433e-09 5.58108e-09 6.45288e-09 -10.2786 0.731801 -0.0259123 -4.21432e-09 5.58108e-09 6.45287e-09 -2.22167 -0.733487 0.20892 -2.03217e-16 0.0 -3.88251e-19 -19.4925 -72.6161 -38.6396 -1.31405 60.7922 0.868207 -0.508415 -18.0294 0.714261 2.03217e-16 0.0 3.88251e-19 5.20838 -43.8306 5.84296 5.28448 80.2179 -5.62466 0.218715 2.17711 -7.98003
17.0952 67.2068 241.683 -176.766 9.1763 -147.633 11.541 37.6027 -1.1182 2.47092 -13.9352 1.73045 -2.42076 4.16125 0.660745 -13.1207 -34.7457 -0.508022 -0.0 0.0 0.0 -0.0 0.0 0.0 -1.65791e-13 9.76791e-14 8.49591e-14 73.126 31.3086 6.40063 -24.8586 -19.7996 54.7317 -0.138925 -10.2401 -1.45586 2.18185e-09 -2.42137e-09 -4.67762e-09 3.8102e-09 -4.20032e-09 -8.06799e-09 2.18185e-09 -2.42137e-09 -4.67763e-09 7.73091 5.47488 0.417314 2.18185e-09 -2.42137e-09 -4.67763e-09 2.90554 0.965183 0.102902 2.18185e-09 -2.42137e-09 -4.67763e-09 10.2786 0.731801 0.0259123 2.18184e-09 -2.42137e-09 -4.67761e-09 2.22167 -0.733487 -0.20892 -1.65795e-13 9.76753e-14 8.48422e-14 -82.0549 41.4712 -7.84421 28.0508 -29.4507 -73.8502 0.00129602 2.1838 -0.306971 -3.98995e-09 5.19387e-09 6.28956e-09 -6.88721e-09 8.99633e-09 1.08824e-08 -3.98995e-09 5.19387e-09 6.28956e-09 -7.73091 5.47488 -0.417314 -3.98995e-09 5.19387e-09 6.28956e-09 -2.90554 0.965183 -0.102902 -3.98995e-09 5.19387e-09 6.28956e-09 -10.2786 0.731801 -0.0259123 -3.98994e-09 5.19387e-09 6.28955e-09 -2.22167 -0.733487 0.20892 -2.03217e-16 0.0 -3.88251e-19 -31.5371 -74.8208 -51.6685 -1.5817 65.183 1.1642 -0.726074 -19.8422 0.205468 2.03217e-16 0.0 3.88251e-19 7.04357 -49.2207 7.40691 26.088 87.6343 -26.3833 -0.0135885 0.832206 -8.10176
